<?xml version="1.0" encoding="UTF-8" standalone="no"?>
<!-- Created with Inkscape (http://www.inkscape.org/) -->

<svg
   width="100"
   height="100"
   viewBox="0 0 26.458333 26.458333"
   version="1.1"
   id="svg1"
   xml:space="preserve"
   sodipodi:docname="closure_octocat.svg"
   inkscape:version="1.4 (86a8ad7, 2024-10-11)"
   xmlns:inkscape="http://www.inkscape.org/namespaces/inkscape"
   xmlns:sodipodi="http://sodipodi.sourceforge.net/DTD/sodipodi-0.dtd"
   xmlns="http://www.w3.org/2000/svg"
   xmlns:svg="http://www.w3.org/2000/svg"><sodipodi:namedview
     id="namedview1"
     pagecolor="#ffffff"
     bordercolor="#000000"
     borderopacity="0.25"
     inkscape:showpageshadow="2"
     inkscape:pageopacity="0.0"
     inkscape:pagecheckerboard="0"
     inkscape:deskcolor="#d1d1d1"
     inkscape:zoom="10.78"
     inkscape:cx="56.818182"
     inkscape:cy="64.517625"
     inkscape:window-width="2560"
     inkscape:window-height="1369"
     inkscape:window-x="1192"
     inkscape:window-y="108"
     inkscape:window-maximized="1"
     inkscape:current-layer="layer1" /><defs
     id="defs1" /><g
     id="layer1"><path
       id="path4"
       style="fill:#000000;stroke-width:0.195594"
       d="m 13.144223,0.28102106 c -0.233547,0.0017 -0.468212,0.0093 -0.703791,0.02284 C 9.196969,0.48988905 6.251839,1.7943531 3.947435,4.0657011 0.94443803,7.0256161 -0.41547897,11.002184 0.11079903,15.284914 0.56754503,19.0018 2.77354,22.495695 6.002003,24.615729 c 0.832263,0.54652 2.362114,1.274772 3.061586,1.457312 h 1.02e-4 c 0.316997,0.08268 0.630676,-0.02807 0.775959,-0.274017 0.08626,-0.146005 0.09392,-0.279787 0.08319,-1.456907 -0.0065,-0.712839 -0.01938,-1.303641 -0.0286,-1.312873 -0.0092,-0.0092 -0.26439,0.01203 -0.567036,0.0472 -0.60013,0.06976 -1.611422,0.0079 -2.133407,-0.13059 C 6.51308,22.765286 5.861396,22.255346 5.599529,21.698375 5.169929,20.784646 5.029913,20.528082 4.781725,20.199422 4.632007,20.001164 4.404733,19.762921 4.276648,19.669987 3.650218,19.215465 3.500386,19.05834 3.500386,18.855821 c 0,-0.129914 0.250191,-0.197012 0.636272,-0.170617 0.721272,0.04931 1.506025,0.598914 2.044461,1.43174 0.370961,0.573784 0.700053,0.886227 1.186428,1.126389 0.396441,0.195842 0.399586,0.196297 1.046843,0.196188 0.573214,-9.6e-5 0.701721,-0.01729 1.097885,-0.147065 0.448684,-0.146973 0.44877,-0.146922 0.533579,-0.52812 0.09917,-0.445747 0.313973,-0.900089 0.563396,-1.191483 0.177167,-0.206979 0.177157,-0.206955 -0.536813,-0.321724 C 9.152179,19.103202 9.066008,18.933196 8.407908,18.619708 6.824293,17.865348 5.929239,16.856276 5.478495,15.079392 5.190087,13.942451 4.787451,11.312606 5.317279,9.2435759 5.847107,7.1745459 7.3873412,5.1083163 7.6886222,4.1545893 c 0.115574,-0.365859 0.137999,-0.399518 0.286752,-0.429269 0.529744,-0.105949 0.5094918,2.4367658 1.5888398,3.1324968 0.397294,0.256089 0.313611,0.251266 1.16763,0.06742 1.591027,-0.342505 3.361158,-0.342505 4.952186,0 0.854085,0.183861 0.770318,0.18872 1.167627,-0.06762 1.07439,-0.693183 1.495908,-3.2360668 2.009729,-3.1396738 0.207861,0.03899 0.268227,0.157208 0.463332,0.906549 0.185464,0.712027 1.350351,2.3918961 1.880944,4.5391221 0.530592,2.1472246 0.276981,4.1374506 0.141671,4.7719756 -0.123219,0.577821 -0.678639,2.060799 -0.902885,2.508748 -0.761752,1.52166 -1.895545,2.484218 -4.194658,2.830039 -0.57654,0.08672 -0.57652,0.08676 -0.371454,0.346186 0.263435,0.33327 0.374626,0.554695 0.514677,1.024605 0.107144,0.359499 0.115156,0.510995 0.144033,2.747141 0.03056,2.366691 0.03051,2.366763 0.19265,2.528814 0.231454,0.231329 0.512293,0.225473 1.183397,-0.02436 4.503045,-1.676361 7.860779,-5.900701 8.434779,-10.61185 0.52972,-4.347806 -0.85571,-8.3270859 -3.93822,-11.3117989 C 19.90505,1.5479731 16.64743,0.25503505 13.144234,0.28101706 Z M 19.90084,18.953364 c 0.02985,-0.0068 1.669751,1.433328 1.879303,2.268243 0.109203,0.43511 0.05785,1.042487 -0.114116,1.349767 L 21.3534,23.13012 21.046735,22.304635 c -0.257484,-0.693135 -1.236048,-0.794961 -1.393836,-0.178399 -0.04546,0.177706 -0.03217,0.317257 -0.0474,0.348913 -0.01414,0.02937 -0.270592,-0.290131 -0.507096,-0.504166 -0.442859,-0.400785 -0.703337,-0.433275 -1.208262,-0.150705 l -0.643752,0.360235 0.520845,-0.784348 c 0.286445,-0.431409 0.79393,-0.785189 1.127703,-0.786167 0.383091,-0.0012 0.53691,-0.313471 0.743514,-0.727445 0.295033,-0.591158 0.210951,-0.917531 0.262393,-0.929189 z"
       sodipodi:nodetypes="cccsscccscccsscssscscssssssssssssccssssssssscscccscccccsccccscc" /></g></svg>
